<svg width="122" height="18" viewBox="0 0 122 18" fill="none" xmlns="http://www.w3.org/2000/svg">
<path fill-rule="evenodd" clip-rule="evenodd" d="M104.561 14.5815C103.975 15.1673 103.975 16.117 104.561 16.7028C105.146 17.2886 106.096 17.2886 106.682 16.7028L112.632 10.7531L118.581 16.7028C119.167 17.2886 120.117 17.2886 120.703 16.7028C121.289 16.117 121.289 15.1673 120.703 14.5815L114.753 8.63174L120.824 2.56066C121.41 1.97487 121.41 1.02513 120.824 0.43934C120.238 -0.146446 119.289 -0.146446 118.703 0.43934L112.632 6.51042L106.561 0.439368C105.975 -0.146419 105.025 -0.146419 104.439 0.439368C103.854 1.02515 103.854 1.9749 104.439 2.56069L110.51 8.63174L104.561 14.5815Z" fill="black"/>
<path fill-rule="evenodd" clip-rule="evenodd" d="M21 8.5C21 9.32843 20.3284 10 19.5 10L1.5 10C0.671574 10 5.87108e-08 9.32843 1.31134e-07 8.5C2.03558e-07 7.67157 0.671574 7 1.5 7L19.5 7C20.3284 7 21 7.67157 21 8.5Z" fill="black"/>
<rect x="55" y="2" width="15" height="15" rx="1" fill="#FCF8E9" stroke="black" stroke-width="2" stroke-linecap="round" stroke-linejoin="round"/>
</svg>
