<svg width="100" height="100" viewBox="0 0 100 100" fill="none" xmlns="http://www.w3.org/2000/svg">
<path d="M49.9997 45.4167C47.458 45.4167 45.4163 47.4584 45.4163 50C45.4163 52.5417 47.458 54.5834 49.9997 54.5834C52.5413 54.5834 54.583 52.5417 54.583 50C54.583 47.4584 52.5413 45.4167 49.9997 45.4167ZM49.9997 8.33337C26.9997 8.33337 8.33301 27 8.33301 50C8.33301 73 26.9997 91.6667 49.9997 91.6667C72.9997 91.6667 91.6663 73 91.6663 50C91.6663 27 72.9997 8.33337 49.9997 8.33337ZM59.1247 59.125L24.9997 75L40.8747 40.875L74.9997 25L59.1247 59.125Z" fill="black"/>
</svg>
